<mxfile host="app.diagrams.net" modified="2022-09-15T06:17:42.074Z" agent="5.0 (Windows NT 10.0; Win64; x64) AppleWebKit/537.36 (KHTML, like Gecko) Chrome/105.0.0.0 Safari/537.36 Edg/105.0.1343.33" etag="HO_fZoKsSrSc_kQOukJT" version="20.2.3" type="github">
  <diagram id="FIUyD77C2hjazYIRZIXY" name="Page-1">
    <mxGraphModel dx="1367" dy="608" grid="1" gridSize="10" guides="1" tooltips="1" connect="1" arrows="1" fold="1" page="1" pageScale="1" pageWidth="850" pageHeight="1100" math="0" shadow="0">
      <root>
        <mxCell id="0" />
        <mxCell id="1" parent="0" />
        <mxCell id="-G4KNoEOUlxN6NU95x4P-1" value="&lt;font style=&quot;font-size: 36px;&quot;&gt;&lt;b&gt;x&lt;/b&gt;&lt;sub&gt;&lt;i&gt;n&lt;/i&gt;&lt;/sub&gt;&lt;/font&gt;" style="rounded=0;whiteSpace=wrap;html=1;" vertex="1" parent="1">
          <mxGeometry x="40" y="70" width="110" height="330" as="geometry" />
        </mxCell>
        <mxCell id="-G4KNoEOUlxN6NU95x4P-2" value="&lt;font style=&quot;font-size: 24px;&quot;&gt;t&lt;/font&gt;" style="text;html=1;strokeColor=none;fillColor=none;align=center;verticalAlign=middle;whiteSpace=wrap;rounded=0;fontSize=36;" vertex="1" parent="1">
          <mxGeometry x="92" y="230" width="60" height="30" as="geometry" />
        </mxCell>
      </root>
    </mxGraphModel>
  </diagram>
</mxfile>
